<svg width="128" height="128" viewBox="0 0 128 128" fill="none" xmlns="http://www.w3.org/2000/svg">
<path d="M25.0625 59V47.2H26.8625V59H25.0625ZM27.4625 59V47.2H29.2625V59H27.4625ZM29.8625 59V47.2H30.4625V59H29.8625ZM32.2625 59V47.2H32.8625V59H32.2625ZM33.4625 59V47.2H34.0625V59H33.4625ZM34.6719 59V47.2H36.4719V59H34.6719ZM37.0719 59V47.2H37.6719V59H37.0719ZM38.2719 59V47.2H38.8719V59H38.2719ZM40.6719 59V47.2H42.4719V59H40.6719ZM43.0719 59V47.2H43.6719V59H43.0719ZM44.2812 59V47.2H46.0813V59H44.2812ZM46.6813 59V47.2H47.2813V59H46.6813ZM47.8813 59V47.2H48.4813V59H47.8813ZM50.2813 59V47.2H50.8813V59H50.2813ZM51.4813 59V47.2H53.2813V59H51.4813ZM53.8906 59V47.2H54.4906V59H53.8906ZM55.0906 59V47.2H55.6906V59H55.0906ZM56.2906 59V47.2H58.0906V59H56.2906ZM58.6906 59V47.2H59.2906V59H58.6906ZM61.0906 59V47.2H62.8906V59H61.0906ZM63.5 59V47.2H64.1V59H63.5ZM64.7 59V47.2H65.3V59H64.7ZM65.9 59V47.2H67.7V59H65.9ZM69.5 59V47.2H70.1V59H69.5ZM70.7 59V47.2H72.5V59H70.7ZM73.1094 59V47.2H74.9094V59H73.1094ZM75.5094 59V47.2H76.1094V59H75.5094ZM76.7094 59V47.2H77.3094V59H76.7094ZM77.9094 59V47.2H79.7094V59H77.9094ZM81.5094 59V47.2H82.1094V59H81.5094ZM82.7188 59V47.2H84.5188V59H82.7188ZM85.1188 59V47.2H85.7188V59H85.1188ZM86.3188 59V47.2H86.9188V59H86.3188ZM88.7188 59V47.2H89.3188V59H88.7188ZM89.9188 59V47.2H91.7188V59H89.9188ZM92.3281 59V47.2H94.1281V59H92.3281ZM94.7281 59V47.2H96.5281V59H94.7281ZM97.1281 59V47.2H97.7281V59H97.1281ZM98.3281 59V47.2H98.9281V59H98.3281ZM100.728 59V47.2H101.328V59H100.728ZM39.4766 79V67.2H40.0766V79H39.4766ZM40.6766 79V67.2H41.2766V79H40.6766ZM41.8766 79V67.2H43.6766V79H41.8766ZM45.4766 79V67.2H46.0766V79H45.4766ZM46.6766 79V67.2H48.4766V79H46.6766ZM49.0859 79V67.2H50.8859V79H49.0859ZM52.6859 79V67.2H53.2859V79H52.6859ZM53.8859 79V67.2H54.4859V79H53.8859ZM55.0859 79V67.2H55.6859V79H55.0859ZM56.2859 79V67.2H58.0859V79H56.2859ZM58.6953 79V67.2H59.2953V79H58.6953ZM59.8953 79V67.2H60.4953V79H59.8953ZM61.0953 79V67.2H62.8953V79H61.0953ZM63.4953 79V67.2H65.2953V79H63.4953ZM67.0953 79V67.2H67.6953V79H67.0953ZM68.3047 79V67.2H68.9047V79H68.3047ZM69.5047 79V67.2H70.1047V79H69.5047ZM70.7047 79V67.2H72.5047V79H70.7047ZM73.1047 79V67.2H74.9047V79H73.1047ZM76.7047 79V67.2H77.3047V79H76.7047ZM77.9141 79V67.2H79.7141V79H77.9141ZM80.3141 79V67.2H80.9141V79H80.3141ZM81.5141 79V67.2H82.1141V79H81.5141ZM83.9141 79V67.2H84.5141V79H83.9141ZM85.1141 79V67.2H86.9141V79H85.1141Z" fill="black"/>
</svg>
